<mxfile host="app.diagrams.net" modified="2022-11-14T12:25:28.746Z" agent="5.0 (Windows NT 10.0; Win64; x64) AppleWebKit/537.36 (KHTML, like Gecko) Chrome/107.0.0.0 Safari/537.36" etag="A5fbR6slk5e4bPCjhWM0" version="20.5.3" type="github">
  <diagram id="6UiVabQij5a_znQxm9Nm" name="第 1 页">
    <mxGraphModel dx="2029" dy="774" grid="1" gridSize="10" guides="1" tooltips="1" connect="1" arrows="1" fold="1" page="1" pageScale="1" pageWidth="827" pageHeight="1169" math="0" shadow="0">
      <root>
        <mxCell id="0" />
        <mxCell id="1" parent="0" />
        <mxCell id="Y1lMul3NB06A8DSCOJsI-2" value="" style="html=1;shadow=0;dashed=0;align=center;verticalAlign=middle;shape=mxgraph.arrows2.arrow;dy=0;dx=10;notch=0;rotation=90;" vertex="1" parent="1">
          <mxGeometry x="388" y="581.5" width="25" height="10" as="geometry" />
        </mxCell>
        <mxCell id="Y1lMul3NB06A8DSCOJsI-5" value="" style="html=1;shadow=0;dashed=0;align=center;verticalAlign=middle;shape=mxgraph.arrows2.arrow;dy=0;dx=10;notch=0;rotation=90;" vertex="1" parent="1">
          <mxGeometry x="468" y="581.5" width="25" height="10" as="geometry" />
        </mxCell>
        <mxCell id="Y1lMul3NB06A8DSCOJsI-6" value="" style="endArrow=classic;html=1;rounded=0;" edge="1" parent="1">
          <mxGeometry width="50" height="50" relative="1" as="geometry">
            <mxPoint x="280" y="600" as="sourcePoint" />
            <mxPoint x="590" y="600" as="targetPoint" />
          </mxGeometry>
        </mxCell>
        <mxCell id="Y1lMul3NB06A8DSCOJsI-8" value="on" style="text;html=1;strokeColor=none;fillColor=none;align=center;verticalAlign=middle;whiteSpace=wrap;rounded=0;" vertex="1" parent="1">
          <mxGeometry x="393" y="610" width="20" height="10" as="geometry" />
        </mxCell>
        <mxCell id="Y1lMul3NB06A8DSCOJsI-10" value="off" style="text;html=1;strokeColor=none;fillColor=none;align=center;verticalAlign=middle;whiteSpace=wrap;rounded=0;" vertex="1" parent="1">
          <mxGeometry x="470.5" y="610" width="20" height="10" as="geometry" />
        </mxCell>
        <mxCell id="Y1lMul3NB06A8DSCOJsI-11" value="" style="endArrow=classic;html=1;rounded=0;strokeColor=#CCCCCC;" edge="1" parent="1">
          <mxGeometry width="50" height="50" relative="1" as="geometry">
            <mxPoint x="330" y="650" as="sourcePoint" />
            <mxPoint x="330" y="600" as="targetPoint" />
          </mxGeometry>
        </mxCell>
        <mxCell id="Y1lMul3NB06A8DSCOJsI-12" value="" style="endArrow=classic;html=1;rounded=0;" edge="1" parent="1">
          <mxGeometry width="50" height="50" relative="1" as="geometry">
            <mxPoint x="360" y="649.9999999999998" as="sourcePoint" />
            <mxPoint x="360" y="600" as="targetPoint" />
          </mxGeometry>
        </mxCell>
        <mxCell id="Y1lMul3NB06A8DSCOJsI-13" value="" style="html=1;shadow=0;dashed=0;align=center;verticalAlign=middle;shape=mxgraph.arrows2.arrow;dy=0;dx=10;notch=0;rotation=90;" vertex="1" parent="1">
          <mxGeometry x="388" y="680" width="25" height="10" as="geometry" />
        </mxCell>
        <mxCell id="Y1lMul3NB06A8DSCOJsI-14" value="" style="html=1;shadow=0;dashed=0;align=center;verticalAlign=middle;shape=mxgraph.arrows2.arrow;dy=0;dx=10;notch=0;rotation=90;" vertex="1" parent="1">
          <mxGeometry x="468" y="680" width="25" height="10" as="geometry" />
        </mxCell>
        <mxCell id="Y1lMul3NB06A8DSCOJsI-15" value="" style="endArrow=classic;html=1;rounded=0;" edge="1" parent="1">
          <mxGeometry width="50" height="50" relative="1" as="geometry">
            <mxPoint x="280" y="698.5" as="sourcePoint" />
            <mxPoint x="590" y="698.5" as="targetPoint" />
          </mxGeometry>
        </mxCell>
        <mxCell id="Y1lMul3NB06A8DSCOJsI-16" value="on" style="text;html=1;strokeColor=none;fillColor=none;align=center;verticalAlign=middle;whiteSpace=wrap;rounded=0;" vertex="1" parent="1">
          <mxGeometry x="393" y="708.5" width="20" height="10" as="geometry" />
        </mxCell>
        <mxCell id="Y1lMul3NB06A8DSCOJsI-17" value="off" style="text;html=1;strokeColor=none;fillColor=none;align=center;verticalAlign=middle;whiteSpace=wrap;rounded=0;" vertex="1" parent="1">
          <mxGeometry x="470.5" y="708.5" width="20" height="10" as="geometry" />
        </mxCell>
        <mxCell id="Y1lMul3NB06A8DSCOJsI-18" value="" style="endArrow=classic;html=1;rounded=0;strokeColor=#CCCCCC;" edge="1" parent="1">
          <mxGeometry width="50" height="50" relative="1" as="geometry">
            <mxPoint x="350" y="748.4999999999998" as="sourcePoint" />
            <mxPoint x="350" y="698.5" as="targetPoint" />
          </mxGeometry>
        </mxCell>
        <mxCell id="Y1lMul3NB06A8DSCOJsI-19" value="" style="endArrow=classic;html=1;rounded=0;" edge="1" parent="1">
          <mxGeometry width="50" height="50" relative="1" as="geometry">
            <mxPoint x="440" y="748.4999999999998" as="sourcePoint" />
            <mxPoint x="440" y="698.5" as="targetPoint" />
          </mxGeometry>
        </mxCell>
        <mxCell id="Y1lMul3NB06A8DSCOJsI-20" value="" style="html=1;shadow=0;dashed=0;align=center;verticalAlign=middle;shape=mxgraph.arrows2.arrow;dy=0;dx=10;notch=0;rotation=90;" vertex="1" parent="1">
          <mxGeometry x="388" y="783" width="25" height="10" as="geometry" />
        </mxCell>
        <mxCell id="Y1lMul3NB06A8DSCOJsI-21" value="" style="html=1;shadow=0;dashed=0;align=center;verticalAlign=middle;shape=mxgraph.arrows2.arrow;dy=0;dx=10;notch=0;rotation=90;" vertex="1" parent="1">
          <mxGeometry x="468" y="783" width="25" height="10" as="geometry" />
        </mxCell>
        <mxCell id="Y1lMul3NB06A8DSCOJsI-22" value="" style="endArrow=classic;html=1;rounded=0;" edge="1" parent="1">
          <mxGeometry width="50" height="50" relative="1" as="geometry">
            <mxPoint x="280" y="800" as="sourcePoint" />
            <mxPoint x="590" y="800" as="targetPoint" />
          </mxGeometry>
        </mxCell>
        <mxCell id="Y1lMul3NB06A8DSCOJsI-23" value="on" style="text;html=1;strokeColor=none;fillColor=none;align=center;verticalAlign=middle;whiteSpace=wrap;rounded=0;" vertex="1" parent="1">
          <mxGeometry x="393" y="818.5" width="20" height="10" as="geometry" />
        </mxCell>
        <mxCell id="Y1lMul3NB06A8DSCOJsI-24" value="off" style="text;html=1;strokeColor=none;fillColor=none;align=center;verticalAlign=middle;whiteSpace=wrap;rounded=0;" vertex="1" parent="1">
          <mxGeometry x="470.5" y="818.5" width="20" height="10" as="geometry" />
        </mxCell>
        <mxCell id="Y1lMul3NB06A8DSCOJsI-25" value="" style="endArrow=classic;html=1;rounded=0;strokeColor=#CCCCCC;" edge="1" parent="1">
          <mxGeometry width="50" height="50" relative="1" as="geometry">
            <mxPoint x="430" y="851.4999999999998" as="sourcePoint" />
            <mxPoint x="430" y="801.5" as="targetPoint" />
          </mxGeometry>
        </mxCell>
        <mxCell id="Y1lMul3NB06A8DSCOJsI-26" value="" style="endArrow=classic;html=1;rounded=0;" edge="1" parent="1">
          <mxGeometry width="50" height="50" relative="1" as="geometry">
            <mxPoint x="460" y="850.4999999999998" as="sourcePoint" />
            <mxPoint x="460" y="800.5" as="targetPoint" />
          </mxGeometry>
        </mxCell>
        <mxCell id="Y1lMul3NB06A8DSCOJsI-27" value="" style="html=1;shadow=0;dashed=0;align=center;verticalAlign=middle;shape=mxgraph.arrows2.arrow;dy=0;dx=10;notch=0;rotation=90;" vertex="1" parent="1">
          <mxGeometry x="388" y="883" width="25" height="10" as="geometry" />
        </mxCell>
        <mxCell id="Y1lMul3NB06A8DSCOJsI-28" value="" style="html=1;shadow=0;dashed=0;align=center;verticalAlign=middle;shape=mxgraph.arrows2.arrow;dy=0;dx=10;notch=0;rotation=90;" vertex="1" parent="1">
          <mxGeometry x="468" y="883" width="25" height="10" as="geometry" />
        </mxCell>
        <mxCell id="Y1lMul3NB06A8DSCOJsI-29" value="" style="endArrow=classic;html=1;rounded=0;" edge="1" parent="1">
          <mxGeometry width="50" height="50" relative="1" as="geometry">
            <mxPoint x="280" y="900" as="sourcePoint" />
            <mxPoint x="590" y="900" as="targetPoint" />
          </mxGeometry>
        </mxCell>
        <mxCell id="Y1lMul3NB06A8DSCOJsI-30" value="on" style="text;html=1;strokeColor=none;fillColor=none;align=center;verticalAlign=middle;whiteSpace=wrap;rounded=0;" vertex="1" parent="1">
          <mxGeometry x="393" y="910" width="20" height="10" as="geometry" />
        </mxCell>
        <mxCell id="Y1lMul3NB06A8DSCOJsI-31" value="off" style="text;html=1;strokeColor=none;fillColor=none;align=center;verticalAlign=middle;whiteSpace=wrap;rounded=0;" vertex="1" parent="1">
          <mxGeometry x="470.5" y="910" width="20" height="10" as="geometry" />
        </mxCell>
        <mxCell id="Y1lMul3NB06A8DSCOJsI-32" value="" style="endArrow=classic;html=1;rounded=0;strokeColor=#CCCCCC;" edge="1" parent="1">
          <mxGeometry width="50" height="50" relative="1" as="geometry">
            <mxPoint x="440" y="949.9999999999998" as="sourcePoint" />
            <mxPoint x="440" y="900" as="targetPoint" />
          </mxGeometry>
        </mxCell>
        <mxCell id="Y1lMul3NB06A8DSCOJsI-33" value="" style="endArrow=classic;html=1;rounded=0;" edge="1" parent="1">
          <mxGeometry width="50" height="50" relative="1" as="geometry">
            <mxPoint x="540" y="949.9999999999998" as="sourcePoint" />
            <mxPoint x="540" y="900" as="targetPoint" />
          </mxGeometry>
        </mxCell>
        <mxCell id="Y1lMul3NB06A8DSCOJsI-34" value="" style="html=1;shadow=0;dashed=0;align=center;verticalAlign=middle;shape=mxgraph.arrows2.arrow;dy=0;dx=10;notch=0;rotation=90;" vertex="1" parent="1">
          <mxGeometry x="388" y="981.5" width="25" height="10" as="geometry" />
        </mxCell>
        <mxCell id="Y1lMul3NB06A8DSCOJsI-35" value="" style="html=1;shadow=0;dashed=0;align=center;verticalAlign=middle;shape=mxgraph.arrows2.arrow;dy=0;dx=10;notch=0;rotation=90;" vertex="1" parent="1">
          <mxGeometry x="468" y="981.5" width="25" height="10" as="geometry" />
        </mxCell>
        <mxCell id="Y1lMul3NB06A8DSCOJsI-36" value="" style="endArrow=classic;html=1;rounded=0;" edge="1" parent="1">
          <mxGeometry width="50" height="50" relative="1" as="geometry">
            <mxPoint x="280" y="1000" as="sourcePoint" />
            <mxPoint x="590" y="1000" as="targetPoint" />
          </mxGeometry>
        </mxCell>
        <mxCell id="Y1lMul3NB06A8DSCOJsI-37" value="on" style="text;html=1;strokeColor=none;fillColor=none;align=center;verticalAlign=middle;whiteSpace=wrap;rounded=0;" vertex="1" parent="1">
          <mxGeometry x="393" y="1010" width="20" height="10" as="geometry" />
        </mxCell>
        <mxCell id="Y1lMul3NB06A8DSCOJsI-38" value="off" style="text;html=1;strokeColor=none;fillColor=none;align=center;verticalAlign=middle;whiteSpace=wrap;rounded=0;" vertex="1" parent="1">
          <mxGeometry x="470.5" y="1010" width="20" height="10" as="geometry" />
        </mxCell>
        <mxCell id="Y1lMul3NB06A8DSCOJsI-39" value="" style="endArrow=classic;html=1;rounded=0;strokeColor=#CCCCCC;" edge="1" parent="1">
          <mxGeometry width="50" height="50" relative="1" as="geometry">
            <mxPoint x="520" y="1049.9999999999998" as="sourcePoint" />
            <mxPoint x="520" y="1000" as="targetPoint" />
          </mxGeometry>
        </mxCell>
        <mxCell id="Y1lMul3NB06A8DSCOJsI-40" value="" style="endArrow=classic;html=1;rounded=0;" edge="1" parent="1">
          <mxGeometry width="50" height="50" relative="1" as="geometry">
            <mxPoint x="550" y="1049.9999999999998" as="sourcePoint" />
            <mxPoint x="550" y="1000" as="targetPoint" />
          </mxGeometry>
        </mxCell>
        <mxCell id="Y1lMul3NB06A8DSCOJsI-42" value="" style="endArrow=classic;html=1;rounded=0;strokeColor=#CCCCCC;" edge="1" parent="1">
          <mxGeometry width="50" height="50" relative="1" as="geometry">
            <mxPoint x="650" y="520" as="sourcePoint" />
            <mxPoint x="650" y="490" as="targetPoint" />
          </mxGeometry>
        </mxCell>
        <mxCell id="Y1lMul3NB06A8DSCOJsI-43" value="" style="endArrow=classic;html=1;rounded=0;" edge="1" parent="1">
          <mxGeometry width="50" height="50" relative="1" as="geometry">
            <mxPoint x="650" y="570" as="sourcePoint" />
            <mxPoint x="650" y="536.5" as="targetPoint" />
          </mxGeometry>
        </mxCell>
        <mxCell id="Y1lMul3NB06A8DSCOJsI-44" value="回滚帧" style="text;html=1;strokeColor=none;fillColor=none;align=center;verticalAlign=middle;whiteSpace=wrap;rounded=0;" vertex="1" parent="1">
          <mxGeometry x="660" y="490" width="60" height="30" as="geometry" />
        </mxCell>
        <mxCell id="Y1lMul3NB06A8DSCOJsI-45" value="当前帧" style="text;html=1;strokeColor=none;fillColor=none;align=center;verticalAlign=middle;whiteSpace=wrap;rounded=0;" vertex="1" parent="1">
          <mxGeometry x="660" y="541.5" width="60" height="30" as="geometry" />
        </mxCell>
        <mxCell id="Y1lMul3NB06A8DSCOJsI-46" value="1" style="text;strokeColor=none;fillColor=none;html=1;fontSize=24;fontStyle=1;verticalAlign=middle;align=center;" vertex="1" parent="1">
          <mxGeometry x="180" y="581.5" width="100" height="40" as="geometry" />
        </mxCell>
        <mxCell id="Y1lMul3NB06A8DSCOJsI-47" value="2" style="text;strokeColor=none;fillColor=none;html=1;fontSize=24;fontStyle=1;verticalAlign=middle;align=center;" vertex="1" parent="1">
          <mxGeometry x="180" y="680" width="100" height="40" as="geometry" />
        </mxCell>
        <mxCell id="Y1lMul3NB06A8DSCOJsI-48" value="3" style="text;strokeColor=none;fillColor=none;html=1;fontSize=24;fontStyle=1;verticalAlign=middle;align=center;" vertex="1" parent="1">
          <mxGeometry x="180" y="780" width="100" height="40" as="geometry" />
        </mxCell>
        <mxCell id="Y1lMul3NB06A8DSCOJsI-49" value="4" style="text;strokeColor=none;fillColor=none;html=1;fontSize=24;fontStyle=1;verticalAlign=middle;align=center;" vertex="1" parent="1">
          <mxGeometry x="180" y="881.5" width="100" height="40" as="geometry" />
        </mxCell>
        <mxCell id="Y1lMul3NB06A8DSCOJsI-50" value="5" style="text;strokeColor=none;fillColor=none;html=1;fontSize=24;fontStyle=1;verticalAlign=middle;align=center;" vertex="1" parent="1">
          <mxGeometry x="180" y="981.5" width="100" height="40" as="geometry" />
        </mxCell>
      </root>
    </mxGraphModel>
  </diagram>
</mxfile>
